<svg width="3040" height="1000" viewBox="0 0 3040 1000" fill="none" xmlns="http://www.w3.org/2000/svg">
<path d="M870.494 569.738C894.137 646.827 850.81 728.487 773.72 752.13L414.247 862.379C337.158 886.022 255.498 842.695 231.855 765.605L112.809 377.45C89.1665 300.361 132.493 218.701 209.583 195.058L569.056 84.8094C646.146 61.1664 727.806 104.493 751.449 181.583L870.494 569.738Z" fill="url(#paint0_linear_2001_21)"/>
<g filter="url(#filter0_d_2001_21)">
<circle cx="765.732" cy="633.351" r="134.324" transform="rotate(72.9495 765.732 633.351)" fill="#E3E6F1"/>
</g>
<g filter="url(#filter1_d_2001_21)">
<rect x="191.562" y="381.452" width="70" height="322.077" rx="35" transform="rotate(-107.082 191.562 381.452)" fill="#E3E6F1"/>
</g>
<g filter="url(#filter2_d_2001_21)">
<rect x="230.562" y="501.931" width="70" height="398.937" rx="35" transform="rotate(-107.082 230.562 501.931)" fill="#E3E6F1"/>
</g>
<g filter="url(#filter3_d_2001_21)">
<rect x="270.562" y="627.354" width="70" height="237.172" rx="35" transform="rotate(-107.082 270.562 627.354)" fill="#E3E6F1"/>
</g>
<path d="M1056.26 653V338H1254.71V384.8H1104.86V606.2H1254.71V653H1056.26ZM1078.31 514.85V468.05H1229.96V514.85H1078.31Z" fill="#E3E6F1"/>
<path d="M1391.78 653L1291.88 416.75H1341.83L1413.83 593.6L1405.28 597.65L1482.23 416.75H1529.93L1425.08 653H1391.78Z" fill="#E3E6F1"/>
<path d="M1579.99 653V416.75H1626.34V653H1579.99ZM1602.49 364.55C1592.59 364.55 1584.94 362 1579.54 356.9C1574.14 351.8 1571.44 344.6 1571.44 335.3C1571.44 326.6 1574.14 319.55 1579.54 314.15C1585.24 308.75 1592.89 306.05 1602.49 306.05C1612.39 306.05 1620.04 308.6 1625.44 313.7C1630.84 318.8 1633.54 326 1633.54 335.3C1633.54 344 1630.69 351.05 1624.99 356.45C1619.59 361.85 1612.09 364.55 1602.49 364.55Z" fill="#E3E6F1"/>
<path d="M1697.58 653V416.75H1743.93V465.35L1735.83 470.75C1738.83 460.25 1744.68 450.65 1753.38 441.95C1762.08 432.95 1772.43 425.75 1784.43 420.35C1796.43 414.65 1808.73 411.8 1821.33 411.8C1839.33 411.8 1854.33 415.4 1866.33 422.6C1878.33 429.5 1887.33 440.15 1893.33 454.55C1899.33 468.95 1902.33 487.1 1902.33 509V653H1855.98V512.15C1855.98 498.65 1854.18 487.55 1850.58 478.85C1846.98 469.85 1841.43 463.4 1833.93 459.5C1826.43 455.3 1817.13 453.5 1806.03 454.1C1797.03 454.1 1788.78 455.6 1781.28 458.6C1773.78 461.3 1767.18 465.2 1761.48 470.3C1756.08 475.4 1751.73 481.4 1748.43 488.3C1745.43 494.9 1743.93 502.1 1743.93 509.9V653H1720.98C1717.08 653 1713.18 653 1709.28 653C1705.38 653 1701.48 653 1697.58 653Z" fill="url(#paint1_linear_2001_21)"/>
<path d="M2071.41 657.5C2048.31 657.5 2027.61 652.25 2009.31 641.75C1991.31 630.95 1977.06 616.4 1966.56 598.1C1956.06 579.5 1950.81 558.35 1950.81 534.65C1950.81 510.95 1956.06 489.95 1966.56 471.65C1977.06 453.05 1991.31 438.5 2009.31 428C2027.61 417.2 2048.31 411.8 2071.41 411.8C2094.21 411.8 2114.61 417.2 2132.61 428C2150.91 438.5 2165.31 453.05 2175.81 471.65C2186.31 489.95 2191.56 510.95 2191.56 534.65C2191.56 558.35 2186.31 579.5 2175.81 598.1C2165.31 616.4 2150.91 630.95 2132.61 641.75C2114.61 652.25 2094.21 657.5 2071.41 657.5ZM2071.41 615.2C2085.51 615.2 2098.11 611.75 2109.21 604.85C2120.31 597.65 2129.01 588.05 2135.31 576.05C2141.61 563.75 2144.61 549.95 2144.31 534.65C2144.61 519.05 2141.61 505.25 2135.31 493.25C2129.01 480.95 2120.31 471.35 2109.21 464.45C2098.11 457.55 2085.51 454.1 2071.41 454.1C2057.31 454.1 2044.56 457.7 2033.16 464.9C2022.06 471.8 2013.36 481.4 2007.06 493.7C2000.76 505.7 1997.76 519.35 1998.06 534.65C1997.76 549.95 2000.76 563.75 2007.06 576.05C2013.36 588.05 2022.06 597.65 2033.16 604.85C2044.56 611.75 2057.31 615.2 2071.41 615.2Z" fill="url(#paint2_linear_2001_21)"/>
<path d="M2271.32 653V356.45H2317.67V653H2271.32ZM2222.27 461.75V416.75H2372.57V461.75H2222.27Z" fill="url(#paint3_linear_2001_21)"/>
<path d="M2522.82 657.5C2498.52 657.5 2476.92 652.4 2458.02 642.2C2439.42 631.7 2424.72 617.45 2413.92 599.45C2403.42 581.45 2398.17 560.75 2398.17 537.35C2398.17 518.75 2401.17 501.8 2407.17 486.5C2413.17 471.2 2421.42 458 2431.92 446.9C2442.72 435.5 2455.47 426.8 2470.17 420.8C2485.17 414.5 2501.37 411.35 2518.77 411.35C2534.07 411.35 2548.32 414.35 2561.52 420.35C2574.72 426.05 2586.12 434 2595.72 444.2C2605.62 454.4 2613.12 466.55 2618.22 480.65C2623.62 494.45 2626.17 509.6 2625.87 526.1L2625.42 545.9H2432.37L2422.02 509H2585.37L2578.62 516.65V505.85C2577.72 495.95 2574.42 487.1 2568.72 479.3C2563.02 471.5 2555.82 465.35 2547.12 460.85C2538.42 456.35 2528.97 454.1 2518.77 454.1C2502.57 454.1 2488.92 457.25 2477.82 463.55C2466.72 469.55 2458.32 478.55 2452.62 490.55C2446.92 502.25 2444.07 516.8 2444.07 534.2C2444.07 550.7 2447.52 565.1 2454.42 577.4C2461.32 589.4 2471.07 598.7 2483.67 605.3C2496.27 611.9 2510.82 615.2 2527.32 615.2C2539.02 615.2 2549.82 613.25 2559.72 609.35C2569.92 605.45 2580.87 598.4 2592.57 588.2L2615.97 621.05C2608.77 628.25 2599.92 634.55 2589.42 639.95C2579.22 645.35 2568.27 649.7 2556.57 653C2545.17 656 2533.92 657.5 2522.82 657.5Z" fill="url(#paint4_linear_2001_21)"/>
<defs>
<filter id="filter0_d_2001_21" x="583.472" y="463.091" width="364.52" height="364.52" filterUnits="userSpaceOnUse" color-interpolation-filters="sRGB">
<feFlood flood-opacity="0" result="BackgroundImageFix"/>
<feColorMatrix in="SourceAlpha" type="matrix" values="0 0 0 0 0 0 0 0 0 0 0 0 0 0 0 0 0 0 127 0" result="hardAlpha"/>
<feMorphology radius="14" operator="dilate" in="SourceAlpha" result="effect1_dropShadow_2001_21"/>
<feOffset dy="12"/>
<feGaussianBlur stdDeviation="16.95"/>
<feComposite in2="hardAlpha" operator="out"/>
<feColorMatrix type="matrix" values="0 0 0 0 0 0 0 0 0 0 0 0 0 0 0 0 0 0 0.25 0"/>
<feBlend mode="normal" in2="BackgroundImageFix" result="effect1_dropShadow_2001_21"/>
<feBlend mode="normal" in="SourceGraphic" in2="effect1_dropShadow_2001_21" result="shape"/>
</filter>
<filter id="filter1_d_2001_21" x="145.228" y="203.162" width="379.976" height="213.063" filterUnits="userSpaceOnUse" color-interpolation-filters="sRGB">
<feFlood flood-opacity="0" result="BackgroundImageFix"/>
<feColorMatrix in="SourceAlpha" type="matrix" values="0 0 0 0 0 0 0 0 0 0 0 0 0 0 0 0 0 0 127 0" result="hardAlpha"/>
<feMorphology radius="1" operator="dilate" in="SourceAlpha" result="effect1_dropShadow_2001_21"/>
<feOffset dy="9"/>
<feGaussianBlur stdDeviation="16.75"/>
<feComposite in2="hardAlpha" operator="out"/>
<feColorMatrix type="matrix" values="0 0 0 0 0.1375 0 0 0 0 0.136354 0 0 0 0 0.136354 0 0 0 0.4 0"/>
<feBlend mode="normal" in2="BackgroundImageFix" result="effect1_dropShadow_2001_21"/>
<feBlend mode="normal" in="SourceGraphic" in2="effect1_dropShadow_2001_21" result="shape"/>
</filter>
<filter id="filter2_d_2001_21" x="184.228" y="301.064" width="453.445" height="235.639" filterUnits="userSpaceOnUse" color-interpolation-filters="sRGB">
<feFlood flood-opacity="0" result="BackgroundImageFix"/>
<feColorMatrix in="SourceAlpha" type="matrix" values="0 0 0 0 0 0 0 0 0 0 0 0 0 0 0 0 0 0 127 0" result="hardAlpha"/>
<feMorphology radius="1" operator="dilate" in="SourceAlpha" result="effect1_dropShadow_2001_21"/>
<feOffset dy="9"/>
<feGaussianBlur stdDeviation="16.75"/>
<feComposite in2="hardAlpha" operator="out"/>
<feColorMatrix type="matrix" values="0 0 0 0 0.1375 0 0 0 0 0.136354 0 0 0 0 0.136354 0 0 0 0.4 0"/>
<feBlend mode="normal" in2="BackgroundImageFix" result="effect1_dropShadow_2001_21"/>
<feBlend mode="normal" in="SourceGraphic" in2="effect1_dropShadow_2001_21" result="shape"/>
</filter>
<filter id="filter3_d_2001_21" x="224.228" y="474.003" width="298.816" height="188.123" filterUnits="userSpaceOnUse" color-interpolation-filters="sRGB">
<feFlood flood-opacity="0" result="BackgroundImageFix"/>
<feColorMatrix in="SourceAlpha" type="matrix" values="0 0 0 0 0 0 0 0 0 0 0 0 0 0 0 0 0 0 127 0" result="hardAlpha"/>
<feMorphology radius="1" operator="dilate" in="SourceAlpha" result="effect1_dropShadow_2001_21"/>
<feOffset dy="9"/>
<feGaussianBlur stdDeviation="16.75"/>
<feComposite in2="hardAlpha" operator="out"/>
<feColorMatrix type="matrix" values="0 0 0 0 0.1375 0 0 0 0 0.136354 0 0 0 0 0.136354 0 0 0 0.4 0"/>
<feBlend mode="normal" in2="BackgroundImageFix" result="effect1_dropShadow_2001_21"/>
<feBlend mode="normal" in="SourceGraphic" in2="effect1_dropShadow_2001_21" result="shape"/>
</filter>
<linearGradient id="paint0_linear_2001_21" x1="105.5" y1="233" x2="977.5" y2="769.5" gradientUnits="userSpaceOnUse">
<stop stop-color="#FC5083"/>
<stop offset="0.723958" stop-color="#9C20AA"/>
</linearGradient>
<linearGradient id="paint1_linear_2001_21" x1="913" y1="484.5" x2="2743" y2="484.5" gradientUnits="userSpaceOnUse">
<stop stop-color="#FB3570"/>
<stop offset="0.826923" stop-color="#BC2797"/>
<stop offset="1" stop-color="#9C20AA"/>
</linearGradient>
<linearGradient id="paint2_linear_2001_21" x1="913" y1="484.5" x2="2743" y2="484.5" gradientUnits="userSpaceOnUse">
<stop stop-color="#FB3570"/>
<stop offset="0.826923" stop-color="#BC2797"/>
<stop offset="1" stop-color="#9C20AA"/>
</linearGradient>
<linearGradient id="paint3_linear_2001_21" x1="913" y1="484.5" x2="2743" y2="484.5" gradientUnits="userSpaceOnUse">
<stop stop-color="#FB3570"/>
<stop offset="0.826923" stop-color="#BC2797"/>
<stop offset="1" stop-color="#9C20AA"/>
</linearGradient>
<linearGradient id="paint4_linear_2001_21" x1="913" y1="484.5" x2="2743" y2="484.5" gradientUnits="userSpaceOnUse">
<stop stop-color="#FB3570"/>
<stop offset="0.826923" stop-color="#BC2797"/>
<stop offset="1" stop-color="#9C20AA"/>
</linearGradient>
</defs>
</svg>
